<?xml version="1.0" standalone="no"?>
<!DOCTYPE svg PUBLIC "-//W3C//DTD SVG 20010904//EN"
 "http://www.w3.org/TR/2001/REC-SVG-20010904/DTD/svg10.dtd">
<svg version="1.0" xmlns="http://www.w3.org/2000/svg"
 width="735.000000pt" height="587.000000pt" viewBox="0 0 735.000000 587.000000"
 preserveAspectRatio="xMidYMid meet">

<g transform="translate(0.000000,587.000000) scale(0.100000,-0.100000)"
fill="#000000" stroke="none">
<path d="M3125 4805 c-412 -239 -861 -499 -997 -577 l-247 -143 0 -530 0 -530
803 -463 c442 -254 809 -462 815 -462 6 0 97 50 202 111 105 61 198 108 205
105 8 -3 98 -53 199 -111 102 -58 189 -105 194 -105 7 0 180 100 1066 615
l140 81 0 759 0 758 -570 329 c-984 568 -1037 598 -1048 598 -7 0 -349 -196
-762 -435z m1545 -61 c418 -242 760 -441 760 -444 0 -3 -82 -52 -183 -110
-107 -62 -182 -111 -182 -120 0 -9 75 -58 183 -120 100 -57 182 -107 182 -111
0 -8 -1117 -659 -1130 -659 -6 0 -96 50 -200 110 -104 61 -194 110 -200 110
-6 0 -97 -50 -201 -111 -104 -61 -196 -109 -204 -107 -18 4 -1535 881 -1535
888 0 13 1917 1120 1932 1116 10 -2 359 -201 778 -442z m800 -674 c0 -104 -2
-190 -5 -190 -10 0 -325 185 -325 190 0 6 311 189 323 190 4 0 7 -85 7 -190z
m-2927 -406 c331 -191 674 -388 762 -439 l160 -93 3 -481 c1 -264 1 -481 -1
-481 -2 0 -154 87 -338 193 -184 106 -529 305 -766 441 l-433 248 0 479 c0
264 2 479 5 479 3 0 276 -156 608 -346z m2925 -355 l-3 -491 -565 -329 c-311
-181 -568 -329 -572 -329 -5 0 -8 220 -8 489 l0 489 568 330 c312 182 570 331
575 331 4 1 6 -220 5 -490z m-1588 -458 l0 -490 -97 -57 c-54 -31 -135 -79
-180 -105 l-83 -49 0 494 0 493 173 101 c94 55 175 101 180 101 4 1 7 -219 7
-488z m222 375 l163 -94 3 -481 c1 -265 -1 -480 -5 -478 -5 2 -81 46 -170 97
l-163 93 0 478 c0 264 2 479 4 479 2 0 78 -42 168 -94z"/>
<path d="M3285 4440 c-434 -252 -601 -355 -603 -369 -3 -15 35 -41 200 -135
112 -64 210 -116 219 -116 15 0 1165 663 1204 694 l20 16 -20 16 c-27 21 -406
244 -414 244 -3 -1 -276 -158 -606 -350z m583 74 l-3 -207 -375 -218 c-206
-120 -381 -219 -389 -219 -15 0 -351 191 -351 200 0 6 1100 648 1113 649 4 1
6 -92 5 -205z m244 86 c84 -49 114 -71 105 -77 -9 -8 -229 -136 -289 -170 -5
-2 -8 78 -8 177 l0 182 38 -22 c20 -13 90 -53 154 -90z"/>
</g>
</svg>
